<svg viewBox="0 0 352 232" xmlns="http://www.w3.org/2000/svg">
  <defs>
    <linearGradient id="mark-gradient" x1="0%" y1="0%" x2="100%" y2="100%">
      <stop offset="0%" stop-color="var(--blue-1, #1E5A8A)" />
      <stop offset="100%" stop-color="var(--blue-5, #4FBCE6)" />
    </linearGradient>
  </defs>
  <g transform="translate(0,232) scale(0.1,-0.1)" fill="url(#mark-gradient)" stroke="none">
    <path d="M1085 2244 c-460 -48 -842 -374 -953 -814 -88 -347 -10 -698 216
-971 205 -248 505 -389 827 -389 183 0 314 27 461 95 149 68 230 134 497 401
139 140 258 254 264 254 11 0 130 -114 486 -467 l239 -237 160 162 161 161
-759 761 c-460 462 -791 786 -842 824 -129 98 -290 170 -450 202 -79 15 -241
25 -307 18z m267 -480 c139 -35 182 -68 461 -343 141 -140 257 -259 257 -265
0 -13 -366 -382 -460 -463 -81 -70 -199 -132 -290 -154 -75 -17 -211 -15 -289
6 -478 125 -640 709 -292 1055 104 103 216 160 366 183 51 9 181 -1 247 -19z
M3012 2132 c-57 -59 -191 -195 -298 -303 -107 -107 -194 -200 -194 -205 0 -6
73 -80 162 -165 l161 -154 298 305 c164 168 299 310 299 316 0 9 -302 305
-319 311 -3 2 -52 -45 -109 -105z"/>
  </g>
</svg>
